<?xml version="1.0" ?><!DOCTYPE svg  PUBLIC '-//W3C//DTD SVG 1.1//EN'  'http://www.w3.org/Graphics/SVG/1.1/DTD/svg11.dtd'><svg enable-background="new 0 0 64 64" height="64px" version="1.1" viewBox="0 0 64 64" width="64px" xml:space="preserve" xmlns="http://www.w3.org/2000/svg" xmlns:xlink="http://www.w3.org/1999/xlink"><g id="Layer_1"/><g id="Layer_2"><g><path d="M32,61.682C15.633,61.682,2.318,48.367,2.318,32S15.633,2.318,32,2.318c16.366,0,29.682,13.315,29.682,29.682    S48.366,61.682,32,61.682z M32,6.318C17.839,6.318,6.318,17.839,6.318,32S17.839,57.682,32,57.682S57.682,46.161,57.682,32    S46.161,6.318,32,6.318z"/></g><g><path d="M32.131,50.051c-9.015,0-16.048-4.839-16.157-4.916c-0.903-0.636-1.12-1.883-0.484-2.787    c0.634-0.902,1.881-1.12,2.784-0.486c0.598,0.417,14.608,9.96,27.294-1.001c0.836-0.724,2.099-0.63,2.821,0.206    c0.722,0.836,0.63,2.099-0.206,2.821C42.787,48.55,37.151,50.051,32.131,50.051z"/></g><g><g><circle cx="21.76" cy="25.469" r="4.01"/></g><g><circle cx="42.24" cy="25.469" r="4.01"/></g></g></g></svg>